<svg width="122" height="39" viewBox="0 0 122 39" fill="none" xmlns="http://www.w3.org/2000/svg">
<path d="M58.2438 18.8728H58.2407C57.5141 18.5242 56.5875 18.346 55.4859 18.346H52.3516C51.5165 18.346 50.8487 18.1136 50.3715 17.6658L50.3482 17.6426C49.8819 17.1514 49.6572 16.5983 49.6572 15.9522C49.6572 15.3061 49.8896 14.7096 50.3482 14.2262C50.81 13.7351 51.4436 13.4872 52.2245 13.4872H59.9373V11.8123H51.9379C51.0687 11.8123 50.3219 12.0137 49.6541 12.4243C48.9863 12.8147 48.4813 13.3183 48.1125 13.9597C47.7438 14.6027 47.5609 15.2829 47.5609 16.0452C47.5609 16.9392 47.7515 17.6968 48.1311 18.3011C48.5386 18.9162 49.0793 19.3763 49.7812 19.7125C50.5109 20.0224 51.377 20.1804 52.3516 20.1804H55.6486C56.2033 20.1804 56.6976 20.3075 57.1159 20.56C57.5435 20.7878 57.8611 21.1132 58.0718 21.5268C58.2779 21.9142 58.374 22.3077 58.374 22.7694C58.374 23.2311 58.2609 23.6944 58.0362 24.1158C57.8115 24.5419 57.466 24.8967 57.0152 25.1756C56.5922 25.4266 56.0747 25.5505 55.489 25.5505H48.0676V27.2223H55.8423C56.7735 27.2223 57.559 27.0131 58.2454 26.584C58.9596 26.1502 59.4957 25.6094 59.8877 24.92C60.2843 24.2119 60.4734 23.4775 60.4734 22.6718C60.4734 21.736 60.275 20.935 59.8908 20.2997C59.5298 19.6738 58.9891 19.2043 58.2438 18.8728Z" fill="white"/>
<path d="M76.6581 12.5209V12.5162C75.4542 11.7942 74.0412 11.427 72.4608 11.427C70.8805 11.427 69.4705 11.7942 68.2589 12.5178C67.0504 13.2181 66.0805 14.1973 65.374 15.4275C64.6675 16.6313 64.3096 18.0087 64.3096 19.5178C64.3096 21.0269 64.6675 22.4198 65.374 23.6422C66.0805 24.8492 67.052 25.8284 68.2589 26.5519C69.4117 27.2259 70.7596 27.5807 72.2594 27.6086H72.4608C74.0412 27.6117 75.4511 27.26 76.6581 26.5566C77.8898 25.833 78.8597 24.8538 79.5476 23.6515C80.2541 22.4244 80.612 21.0362 80.612 19.524C80.612 18.0118 80.2541 16.5988 79.5476 15.3949C78.8597 14.1911 77.8898 13.2243 76.6581 12.5209ZM78.4786 19.5256V19.5225C78.4786 20.7139 78.226 21.8093 77.7256 22.7808C77.2251 23.7367 76.5186 24.5068 75.6293 25.0754C74.743 25.6409 73.6445 25.9384 72.4562 25.9384C71.2678 25.9384 70.2034 25.6487 69.2831 25.0754C68.3937 24.5068 67.6872 23.7336 67.1821 22.7777C66.6848 21.8109 66.4291 20.7155 66.4291 19.524C66.4291 18.3325 66.6817 17.2495 67.1821 16.3013C67.6826 15.3221 68.3937 14.5366 69.2877 13.968C70.2034 13.3947 71.2725 13.1096 72.4562 13.1096C73.6399 13.1096 74.7275 13.3994 75.6293 13.9726C76.5233 14.5459 77.2298 15.3268 77.7302 16.2982C78.2276 17.2495 78.4832 18.3325 78.4832 19.5256H78.4786Z" fill="white"/>
<path d="M96.1615 12.2964L96.1584 12.3011H96.1599C95.0955 11.7263 93.8421 11.4319 92.4275 11.4319C91.0129 11.4319 89.775 11.7263 88.6873 12.3104C87.5966 12.8713 86.7615 13.6459 86.1355 14.667C85.5375 15.6803 85.2338 16.8841 85.2338 18.246V27.2292H87.3316V18.277C87.3316 17.225 87.5687 16.3 88.0351 15.5331C88.5169 14.7522 89.1537 14.1448 89.9268 13.7219C90.7108 13.3082 91.5506 13.099 92.4275 13.099C93.3045 13.099 94.1365 13.3082 94.8972 13.7219C95.6858 14.1402 96.3226 14.7475 96.7921 15.5362C97.277 16.3016 97.5218 17.2188 97.5218 18.2708V27.223H99.6228V18.2398C99.6228 16.8826 99.3083 15.6741 98.6901 14.6608C98.0843 13.6351 97.2569 12.8651 96.1615 12.2964Z" fill="white"/>
<path d="M107.266 11.8107H105.137V27.2253H107.266V11.8107Z" fill="white"/>
<path d="M120.147 13.4855H121.74V11.8107H120.245C118.641 11.8107 117.188 12.1593 115.938 12.8441C114.687 13.5258 113.685 14.4647 112.955 15.6299C112.233 16.7671 111.867 18.0748 111.867 19.5188C111.867 20.9628 112.233 22.2767 112.955 23.4387C113.682 24.5837 114.687 25.5086 115.938 26.1935C117.033 26.7884 119.177 27.2269 120.136 27.2269H121.74V25.552H120.147C118.99 25.552 117.925 25.2855 116.987 24.7587C116.077 24.2134 115.336 23.4743 114.788 22.5648C114.264 21.6523 113.996 20.6266 113.996 19.5157C113.996 18.4048 114.264 17.376 114.793 16.4634C115.336 15.5586 116.079 14.8304 116.991 14.3083C117.927 13.7644 118.985 13.4855 120.147 13.4855Z" fill="white"/>
<path d="M116.992 14.3151V14.3094L116.99 14.3113L116.992 14.3151Z" fill="white"/>
<path d="M23.1073 24.1821L23.112 24.1789C23.112 24.1789 23.1073 24.1821 23.1042 24.1837C23.1057 24.1837 23.1073 24.1837 23.1089 24.1837L23.1073 24.1821Z" fill="white"/>
<path d="M23.1042 24.1837C15.8516 26.3621 9.85397 29.54 6.09676 33.2615L5.93097 33.4273C6.93032 34.3724 8.02572 35.2184 9.20944 35.9373L9.46353 35.6259C10.4892 34.3724 11.5893 33.1624 12.7342 32.0221C15.8066 28.9605 19.3206 26.3109 23.1042 24.1837Z" fill="white"/>
<path d="M23.9424 20.9536H0C0.289732 24.8378 1.73219 28.3998 3.99582 31.2971L4.09963 31.1933C6.42523 28.8987 9.45269 26.8133 13.1045 24.9959C16.3055 23.4016 19.9806 22.0335 23.9424 20.9536Z" fill="white"/>
<path d="M14.7639 4.98964C21.2542 11.4567 29.4225 15.7329 38.3825 17.3551C37.3026 7.76765 29.1421 0.310547 19.2261 0.310547C16.6077 0.310547 14.1117 0.832684 11.8325 1.7747C12.7575 2.88869 13.746 3.97325 14.7639 4.99119V4.98964Z" fill="white"/>
<path d="M6.09676 5.78094C9.85397 9.50872 15.8547 12.6818 23.1088 14.8649C19.3222 12.733 15.8051 10.0851 12.7311 7.02199C11.5893 5.88475 10.4908 4.67469 9.46043 3.41816L9.20634 3.10673C8.02262 3.82564 6.92722 4.67004 5.93252 5.61516L6.09831 5.78094H6.09676Z" fill="white"/>
<path d="M14.7639 34.0521C13.7414 35.07 12.7544 36.1546 11.8325 37.2686C14.1086 38.2106 16.6077 38.7327 19.2261 38.7327C29.1421 38.7327 37.3026 31.2741 38.3856 21.6835C29.4271 23.3057 21.2589 27.5819 14.767 34.049L14.7639 34.0521Z" fill="white"/>
<path d="M13.0999 14.0415V14.0446C9.45114 12.2271 6.42523 10.1401 4.09963 7.84863L3.99582 7.74483C1.73219 10.6421 0.289732 14.2041 0 18.0884H23.9377C19.9775 17.0085 16.3055 15.6404 13.0999 14.0415Z" fill="white"/>
</svg>
